<svg xmlns="http://www.w3.org/2000/svg" xmlns:xlink="http://www.w3.org/1999/xlink" width="375" zoomAndPan="magnify" viewBox="0 0 281.25 374.999989" height="500" preserveAspectRatio="xMidYMid meet" version="1.0"><defs><g/><clipPath id="b5fcd7e2e9"><path d="M 128 155 L 152 155 L 152 179 L 128 179 Z M 128 155 " clip-rule="nonzero"/></clipPath><clipPath id="9c567c6e4d"><path d="M 129.253906 178.929688 L 128.40625 155.753906 L 151.582031 154.910156 L 152.425781 178.082031 Z M 129.253906 178.929688 " clip-rule="nonzero"/></clipPath><clipPath id="75012139c2"><path d="M 129.253906 178.929688 L 128.40625 155.753906 L 151.582031 154.910156 L 152.425781 178.082031 Z M 129.253906 178.929688 " clip-rule="nonzero"/></clipPath><clipPath id="1265de8856"><path d="M 129.253906 178.929688 L 128.40625 155.753906 L 151.582031 154.910156 L 152.425781 178.082031 Z M 129.253906 178.929688 " clip-rule="nonzero"/></clipPath></defs><g fill="#ff00ff" fill-opacity="1"><g transform="translate(154.197369, 130.329116)"><g><path d="M 6.5 -12.328125 C 3.042969 -12.328125 0.277344 -9.550781 0.277344 -6.117188 C 0.277344 -2.675781 3.042969 0.09375 6.5 0.09375 C 7.707031 0.09375 8.84375 -0.25 9.820312 -0.871094 L 9.066406 -2.199219 C 8.324219 -1.679688 7.429688 -1.421875 6.5 -1.421875 C 3.902344 -1.421875 1.789062 -3.519531 1.789062 -6.117188 C 1.789062 -8.714844 3.902344 -10.8125 6.5 -10.8125 C 7.429688 -10.8125 8.324219 -10.554688 9.066406 -10.035156 L 9.820312 -11.382812 C 8.84375 -11.984375 7.707031 -12.328125 6.5 -12.328125 Z M 6.5 -10.65625 C 3.988281 -10.65625 1.945312 -8.609375 1.945312 -6.117188 C 1.945312 -3.617188 3.988281 -1.578125 6.5 -1.578125 C 7.414062 -1.578125 8.273438 -1.855469 8.976562 -2.332031 L 8.257812 -3.660156 C 7.738281 -3.292969 7.152344 -3.09375 6.5 -3.09375 C 4.796875 -3.09375 3.460938 -4.429688 3.460938 -6.117188 C 3.460938 -7.804688 4.796875 -9.144531 6.5 -9.144531 C 7.152344 -9.144531 7.738281 -8.933594 8.257812 -8.574219 L 8.976562 -9.902344 C 8.273438 -10.378906 7.414062 -10.65625 6.5 -10.65625 Z M 6.5 -10.65625 "/></g></g></g><g fill="#ff00ff" fill-opacity="1"><g transform="translate(164.467988, 130.329116)"><g><path d="M 3.46875 -4.019531 L 3.46875 -8.765625 C 3.46875 -10.6875 2.207031 -12.320312 0.257812 -12.367188 L 0.257812 -10.746094 C 1.429688 -10.746094 1.964844 -9.902344 1.964844 -8.75 C 1.980469 -7.230469 1.964844 -5.507812 1.964844 -3.96875 C 1.964844 -2.441406 3.417969 -1.671875 4.761719 -1.671875 L 7.152344 -1.671875 L 7.152344 -3.210938 L 4.363281 -3.210938 C 3.886719 -3.210938 3.46875 -3.550781 3.46875 -4.019531 Z M 0.277344 -3.96875 L 0.257812 -10.546875 C 1.355469 -10.546875 1.78125 -9.71875 1.78125 -8.714844 L 1.78125 -3.953125 C 1.761719 -2.28125 3.308594 -1.472656 4.796875 -1.472656 L 7.152344 -1.472656 L 7.152344 0 L 4.65625 0 C 2.492188 0 0.277344 -1.671875 0.277344 -3.96875 Z M 0.277344 -3.96875 "/></g></g></g><g fill="#ff00ff" fill-opacity="1"><g transform="translate(172.081117, 130.329116)"><g><path d="M 0.417969 0 L 1.945312 0 L 1.945312 -12.269531 L 0.417969 -12.269531 Z M 2.121094 0 L 3.636719 0 L 3.636719 -12.269531 L 2.121094 -12.269531 Z M 2.121094 0 "/></g></g></g><g fill="#ff00ff" fill-opacity="1"><g transform="translate(176.485201, 130.329116)"><g><path d="M 6.5 -12.328125 C 3.042969 -12.328125 0.277344 -9.550781 0.277344 -6.117188 C 0.277344 -2.675781 3.042969 0.09375 6.5 0.09375 C 7.707031 0.09375 8.84375 -0.25 9.820312 -0.871094 L 9.066406 -2.199219 C 8.324219 -1.679688 7.429688 -1.421875 6.5 -1.421875 C 3.902344 -1.421875 1.789062 -3.519531 1.789062 -6.117188 C 1.789062 -8.714844 3.902344 -10.8125 6.5 -10.8125 C 7.429688 -10.8125 8.324219 -10.554688 9.066406 -10.035156 L 9.820312 -11.382812 C 8.84375 -11.984375 7.707031 -12.328125 6.5 -12.328125 Z M 6.5 -10.65625 C 3.988281 -10.65625 1.945312 -8.609375 1.945312 -6.117188 C 1.945312 -3.617188 3.988281 -1.578125 6.5 -1.578125 C 7.414062 -1.578125 8.273438 -1.855469 8.976562 -2.332031 L 8.257812 -3.660156 C 7.738281 -3.292969 7.152344 -3.09375 6.5 -3.09375 C 4.796875 -3.09375 3.460938 -4.429688 3.460938 -6.117188 C 3.460938 -7.804688 4.796875 -9.144531 6.5 -9.144531 C 7.152344 -9.144531 7.738281 -8.933594 8.257812 -8.574219 L 8.976562 -9.902344 C 8.273438 -10.378906 7.414062 -10.65625 6.5 -10.65625 Z M 6.5 -10.65625 "/></g></g></g><g fill="#ff00ff" fill-opacity="1"><g transform="translate(186.75582, 130.329116)"><g><path d="M 0.285156 -0.0234375 L 1.789062 -0.0234375 L 1.789062 -12.25 L 0.285156 -12.25 Z M 1.980469 -12.25 L 1.980469 -6.226562 L 5.015625 -6.226562 L 7.882812 -9.335938 C 8.316406 -9.804688 8.492188 -10.28125 8.492188 -10.914062 L 8.492188 -12.25 L 7.019531 -12.25 L 7.019531 -10.972656 C 7.019531 -10.707031 6.960938 -10.488281 6.785156 -10.296875 L 4.460938 -7.714844 L 3.484375 -7.714844 L 3.484375 -12.25 Z M 8.015625 -9.21875 L 5.140625 -6.132812 L 8.015625 -3.058594 C 8.457031 -2.582031 8.667969 -2.074219 8.667969 -1.371094 L 8.667969 -0.0234375 L 10.128906 -0.0234375 L 10.128906 -1.355469 C 10.128906 -2.304688 9.929688 -3.152344 9.25 -3.851562 L 7.128906 -6.132812 L 9.25 -8.425781 C 9.929688 -9.125 10.128906 -9.960938 10.128906 -10.921875 L 10.128906 -12.25 L 8.667969 -12.25 L 8.667969 -10.898438 C 8.667969 -10.203125 8.457031 -9.695312 8.015625 -9.21875 Z M 4.570312 -4.539062 L 6.785156 -1.988281 C 6.960938 -1.789062 7.019531 -1.570312 7.019531 -1.304688 L 7.019531 -0.0234375 L 8.492188 -0.0234375 L 8.492188 -1.363281 C 8.492188 -1.996094 8.316406 -2.472656 7.882812 -2.941406 L 5.015625 -6.050781 L 1.980469 -6.050781 L 1.980469 -0.0234375 L 3.484375 -0.0234375 L 3.484375 -4.539062 Z M 4.570312 -4.539062 "/></g></g></g><g fill="#00ffff" fill-opacity="1"><g transform="translate(153.647936, 130.416146)"><g><path d="M 6.5 -12.328125 C 3.042969 -12.328125 0.277344 -9.550781 0.277344 -6.117188 C 0.277344 -2.675781 3.042969 0.09375 6.5 0.09375 C 7.707031 0.09375 8.84375 -0.25 9.820312 -0.871094 L 9.066406 -2.199219 C 8.324219 -1.679688 7.429688 -1.421875 6.5 -1.421875 C 3.902344 -1.421875 1.789062 -3.519531 1.789062 -6.117188 C 1.789062 -8.714844 3.902344 -10.8125 6.5 -10.8125 C 7.429688 -10.8125 8.324219 -10.554688 9.066406 -10.035156 L 9.820312 -11.382812 C 8.84375 -11.984375 7.707031 -12.328125 6.5 -12.328125 Z M 6.5 -10.65625 C 3.988281 -10.65625 1.945312 -8.609375 1.945312 -6.117188 C 1.945312 -3.617188 3.988281 -1.578125 6.5 -1.578125 C 7.414062 -1.578125 8.273438 -1.855469 8.976562 -2.332031 L 8.257812 -3.660156 C 7.738281 -3.292969 7.152344 -3.09375 6.5 -3.09375 C 4.796875 -3.09375 3.460938 -4.429688 3.460938 -6.117188 C 3.460938 -7.804688 4.796875 -9.144531 6.5 -9.144531 C 7.152344 -9.144531 7.738281 -8.933594 8.257812 -8.574219 L 8.976562 -9.902344 C 8.273438 -10.378906 7.414062 -10.65625 6.5 -10.65625 Z M 6.5 -10.65625 "/></g></g></g><g fill="#00ffff" fill-opacity="1"><g transform="translate(163.918555, 130.416146)"><g><path d="M 3.46875 -4.019531 L 3.46875 -8.765625 C 3.46875 -10.6875 2.207031 -12.320312 0.257812 -12.367188 L 0.257812 -10.746094 C 1.429688 -10.746094 1.964844 -9.902344 1.964844 -8.75 C 1.980469 -7.230469 1.964844 -5.507812 1.964844 -3.96875 C 1.964844 -2.441406 3.417969 -1.671875 4.761719 -1.671875 L 7.152344 -1.671875 L 7.152344 -3.210938 L 4.363281 -3.210938 C 3.886719 -3.210938 3.46875 -3.550781 3.46875 -4.019531 Z M 0.277344 -3.96875 L 0.257812 -10.546875 C 1.355469 -10.546875 1.78125 -9.71875 1.78125 -8.714844 L 1.78125 -3.953125 C 1.761719 -2.28125 3.308594 -1.472656 4.796875 -1.472656 L 7.152344 -1.472656 L 7.152344 0 L 4.65625 0 C 2.492188 0 0.277344 -1.671875 0.277344 -3.96875 Z M 0.277344 -3.96875 "/></g></g></g><g fill="#00ffff" fill-opacity="1"><g transform="translate(171.531684, 130.416146)"><g><path d="M 0.417969 0 L 1.945312 0 L 1.945312 -12.269531 L 0.417969 -12.269531 Z M 2.121094 0 L 3.636719 0 L 3.636719 -12.269531 L 2.121094 -12.269531 Z M 2.121094 0 "/></g></g></g><g fill="#00ffff" fill-opacity="1"><g transform="translate(175.935768, 130.416146)"><g><path d="M 6.5 -12.328125 C 3.042969 -12.328125 0.277344 -9.550781 0.277344 -6.117188 C 0.277344 -2.675781 3.042969 0.09375 6.5 0.09375 C 7.707031 0.09375 8.84375 -0.25 9.820312 -0.871094 L 9.066406 -2.199219 C 8.324219 -1.679688 7.429688 -1.421875 6.5 -1.421875 C 3.902344 -1.421875 1.789062 -3.519531 1.789062 -6.117188 C 1.789062 -8.714844 3.902344 -10.8125 6.5 -10.8125 C 7.429688 -10.8125 8.324219 -10.554688 9.066406 -10.035156 L 9.820312 -11.382812 C 8.84375 -11.984375 7.707031 -12.328125 6.5 -12.328125 Z M 6.5 -10.65625 C 3.988281 -10.65625 1.945312 -8.609375 1.945312 -6.117188 C 1.945312 -3.617188 3.988281 -1.578125 6.5 -1.578125 C 7.414062 -1.578125 8.273438 -1.855469 8.976562 -2.332031 L 8.257812 -3.660156 C 7.738281 -3.292969 7.152344 -3.09375 6.5 -3.09375 C 4.796875 -3.09375 3.460938 -4.429688 3.460938 -6.117188 C 3.460938 -7.804688 4.796875 -9.144531 6.5 -9.144531 C 7.152344 -9.144531 7.738281 -8.933594 8.257812 -8.574219 L 8.976562 -9.902344 C 8.273438 -10.378906 7.414062 -10.65625 6.5 -10.65625 Z M 6.5 -10.65625 "/></g></g></g><g fill="#00ffff" fill-opacity="1"><g transform="translate(186.206387, 130.416146)"><g><path d="M 0.285156 -0.0234375 L 1.789062 -0.0234375 L 1.789062 -12.25 L 0.285156 -12.25 Z M 1.980469 -12.25 L 1.980469 -6.226562 L 5.015625 -6.226562 L 7.882812 -9.335938 C 8.316406 -9.804688 8.492188 -10.28125 8.492188 -10.914062 L 8.492188 -12.25 L 7.019531 -12.25 L 7.019531 -10.972656 C 7.019531 -10.707031 6.960938 -10.488281 6.785156 -10.296875 L 4.460938 -7.714844 L 3.484375 -7.714844 L 3.484375 -12.25 Z M 8.015625 -9.21875 L 5.140625 -6.132812 L 8.015625 -3.058594 C 8.457031 -2.582031 8.667969 -2.074219 8.667969 -1.371094 L 8.667969 -0.0234375 L 10.128906 -0.0234375 L 10.128906 -1.355469 C 10.128906 -2.304688 9.929688 -3.152344 9.25 -3.851562 L 7.128906 -6.132812 L 9.25 -8.425781 C 9.929688 -9.125 10.128906 -9.960938 10.128906 -10.921875 L 10.128906 -12.25 L 8.667969 -12.25 L 8.667969 -10.898438 C 8.667969 -10.203125 8.457031 -9.695312 8.015625 -9.21875 Z M 4.570312 -4.539062 L 6.785156 -1.988281 C 6.960938 -1.789062 7.019531 -1.570312 7.019531 -1.304688 L 7.019531 -0.0234375 L 8.492188 -0.0234375 L 8.492188 -1.363281 C 8.492188 -1.996094 8.316406 -2.472656 7.882812 -2.941406 L 5.015625 -6.050781 L 1.980469 -6.050781 L 1.980469 -0.0234375 L 3.484375 -0.0234375 L 3.484375 -4.539062 Z M 4.570312 -4.539062 "/></g></g></g><g fill="#ffd501" fill-opacity="1"><g transform="translate(153.922652, 130.372632)"><g><path d="M 6.5 -12.328125 C 3.042969 -12.328125 0.277344 -9.550781 0.277344 -6.117188 C 0.277344 -2.675781 3.042969 0.09375 6.5 0.09375 C 7.707031 0.09375 8.84375 -0.25 9.820312 -0.871094 L 9.066406 -2.199219 C 8.324219 -1.679688 7.429688 -1.421875 6.5 -1.421875 C 3.902344 -1.421875 1.789062 -3.519531 1.789062 -6.117188 C 1.789062 -8.714844 3.902344 -10.8125 6.5 -10.8125 C 7.429688 -10.8125 8.324219 -10.554688 9.066406 -10.035156 L 9.820312 -11.382812 C 8.84375 -11.984375 7.707031 -12.328125 6.5 -12.328125 Z M 6.5 -10.65625 C 3.988281 -10.65625 1.945312 -8.609375 1.945312 -6.117188 C 1.945312 -3.617188 3.988281 -1.578125 6.5 -1.578125 C 7.414062 -1.578125 8.273438 -1.855469 8.976562 -2.332031 L 8.257812 -3.660156 C 7.738281 -3.292969 7.152344 -3.09375 6.5 -3.09375 C 4.796875 -3.09375 3.460938 -4.429688 3.460938 -6.117188 C 3.460938 -7.804688 4.796875 -9.144531 6.5 -9.144531 C 7.152344 -9.144531 7.738281 -8.933594 8.257812 -8.574219 L 8.976562 -9.902344 C 8.273438 -10.378906 7.414062 -10.65625 6.5 -10.65625 Z M 6.5 -10.65625 "/></g></g></g><g fill="#ffd501" fill-opacity="1"><g transform="translate(164.193271, 130.372632)"><g><path d="M 3.46875 -4.019531 L 3.46875 -8.765625 C 3.46875 -10.6875 2.207031 -12.320312 0.257812 -12.367188 L 0.257812 -10.746094 C 1.429688 -10.746094 1.964844 -9.902344 1.964844 -8.75 C 1.980469 -7.230469 1.964844 -5.507812 1.964844 -3.96875 C 1.964844 -2.441406 3.417969 -1.671875 4.761719 -1.671875 L 7.152344 -1.671875 L 7.152344 -3.210938 L 4.363281 -3.210938 C 3.886719 -3.210938 3.46875 -3.550781 3.46875 -4.019531 Z M 0.277344 -3.96875 L 0.257812 -10.546875 C 1.355469 -10.546875 1.78125 -9.71875 1.78125 -8.714844 L 1.78125 -3.953125 C 1.761719 -2.28125 3.308594 -1.472656 4.796875 -1.472656 L 7.152344 -1.472656 L 7.152344 0 L 4.65625 0 C 2.492188 0 0.277344 -1.671875 0.277344 -3.96875 Z M 0.277344 -3.96875 "/></g></g></g><g fill="#ffd501" fill-opacity="1"><g transform="translate(171.806399, 130.372632)"><g><path d="M 0.417969 0 L 1.945312 0 L 1.945312 -12.269531 L 0.417969 -12.269531 Z M 2.121094 0 L 3.636719 0 L 3.636719 -12.269531 L 2.121094 -12.269531 Z M 2.121094 0 "/></g></g></g><g fill="#ffd501" fill-opacity="1"><g transform="translate(176.210483, 130.372632)"><g><path d="M 6.5 -12.328125 C 3.042969 -12.328125 0.277344 -9.550781 0.277344 -6.117188 C 0.277344 -2.675781 3.042969 0.09375 6.5 0.09375 C 7.707031 0.09375 8.84375 -0.25 9.820312 -0.871094 L 9.066406 -2.199219 C 8.324219 -1.679688 7.429688 -1.421875 6.5 -1.421875 C 3.902344 -1.421875 1.789062 -3.519531 1.789062 -6.117188 C 1.789062 -8.714844 3.902344 -10.8125 6.5 -10.8125 C 7.429688 -10.8125 8.324219 -10.554688 9.066406 -10.035156 L 9.820312 -11.382812 C 8.84375 -11.984375 7.707031 -12.328125 6.5 -12.328125 Z M 6.5 -10.65625 C 3.988281 -10.65625 1.945312 -8.609375 1.945312 -6.117188 C 1.945312 -3.617188 3.988281 -1.578125 6.5 -1.578125 C 7.414062 -1.578125 8.273438 -1.855469 8.976562 -2.332031 L 8.257812 -3.660156 C 7.738281 -3.292969 7.152344 -3.09375 6.5 -3.09375 C 4.796875 -3.09375 3.460938 -4.429688 3.460938 -6.117188 C 3.460938 -7.804688 4.796875 -9.144531 6.5 -9.144531 C 7.152344 -9.144531 7.738281 -8.933594 8.257812 -8.574219 L 8.976562 -9.902344 C 8.273438 -10.378906 7.414062 -10.65625 6.5 -10.65625 Z M 6.5 -10.65625 "/></g></g></g><g fill="#ffd501" fill-opacity="1"><g transform="translate(186.481102, 130.372632)"><g><path d="M 0.285156 -0.0234375 L 1.789062 -0.0234375 L 1.789062 -12.25 L 0.285156 -12.25 Z M 1.980469 -12.25 L 1.980469 -6.226562 L 5.015625 -6.226562 L 7.882812 -9.335938 C 8.316406 -9.804688 8.492188 -10.28125 8.492188 -10.914062 L 8.492188 -12.25 L 7.019531 -12.25 L 7.019531 -10.972656 C 7.019531 -10.707031 6.960938 -10.488281 6.785156 -10.296875 L 4.460938 -7.714844 L 3.484375 -7.714844 L 3.484375 -12.25 Z M 8.015625 -9.21875 L 5.140625 -6.132812 L 8.015625 -3.058594 C 8.457031 -2.582031 8.667969 -2.074219 8.667969 -1.371094 L 8.667969 -0.0234375 L 10.128906 -0.0234375 L 10.128906 -1.355469 C 10.128906 -2.304688 9.929688 -3.152344 9.25 -3.851562 L 7.128906 -6.132812 L 9.25 -8.425781 C 9.929688 -9.125 10.128906 -9.960938 10.128906 -10.921875 L 10.128906 -12.25 L 8.667969 -12.25 L 8.667969 -10.898438 C 8.667969 -10.203125 8.457031 -9.695312 8.015625 -9.21875 Z M 4.570312 -4.539062 L 6.785156 -1.988281 C 6.960938 -1.789062 7.019531 -1.570312 7.019531 -1.304688 L 7.019531 -0.0234375 L 8.492188 -0.0234375 L 8.492188 -1.363281 C 8.492188 -1.996094 8.316406 -2.472656 7.882812 -2.941406 L 5.015625 -6.050781 L 1.980469 -6.050781 L 1.980469 -0.0234375 L 3.484375 -0.0234375 L 3.484375 -4.539062 Z M 4.570312 -4.539062 "/></g></g></g><g fill="#ff00ff" fill-opacity="1"><g transform="translate(197.352255, 130.329116)"><g/></g></g><g fill="#00ffff" fill-opacity="1"><g transform="translate(196.802822, 130.416146)"><g/></g></g><g fill="#ffd501" fill-opacity="1"><g transform="translate(197.077537, 130.372632)"><g/></g></g><g fill="#ff00ff" fill-opacity="1"><g transform="translate(157.310914, 147.105178)"><g><path d="M 7.636719 -10.5625 L 7.636719 -6.777344 L 3.527344 -6.777344 L 3.527344 -8.171875 C 3.527344 -10.136719 2.164062 -11.816406 0.335938 -12.335938 L 0.335938 -10.746094 C 1.328125 -10.3125 2.003906 -9.316406 2.003906 -8.191406 L 2.003906 -5.265625 L 9.152344 -5.265625 L 9.152344 -8.191406 C 9.152344 -9.21875 8.523438 -10.121094 7.636719 -10.5625 Z M 10.824219 0 L 9.328125 0 L 9.328125 -8.191406 C 9.328125 -9.316406 8.625 -10.3125 7.636719 -10.746094 L 7.636719 -12.335938 C 9.46875 -11.816406 10.824219 -10.136719 10.824219 -8.171875 Z M 0.335938 0 L 0.335938 -10.5625 C 1.21875 -10.121094 1.832031 -9.21875 1.832031 -8.191406 L 1.832031 0 Z M 9.152344 -5.074219 L 9.152344 0 L 7.636719 0 L 7.636719 -3.570312 L 3.527344 -3.570312 L 3.527344 0 L 2.003906 0 L 2.003906 -5.074219 Z M 9.152344 -5.074219 "/></g></g></g><g fill="#ff00ff" fill-opacity="1"><g transform="translate(168.642856, 147.105178)"><g><path d="M 0.335938 -7.980469 L 0.335938 -4.238281 C 0.335938 -1.929688 2.257812 0.0078125 4.578125 0.0078125 L 8.902344 0.0078125 L 8.902344 -1.453125 L 4.578125 -1.453125 C 3.082031 -1.453125 1.8125 -2.699219 1.8125 -4.21875 L 1.8125 -8.03125 C 1.8125 -9.550781 3.082031 -10.796875 4.578125 -10.796875 L 8.902344 -10.796875 L 8.902344 -12.242188 L 4.578125 -12.242188 C 2.257812 -12.242188 0.335938 -10.320312 0.335938 -7.980469 Z M 3.460938 -8.03125 L 3.460938 -7.695312 L 8.902344 -7.695312 L 8.902344 -6.21875 L 1.988281 -6.21875 L 1.988281 -8.03125 C 1.988281 -9.445312 3.183594 -10.621094 4.578125 -10.621094 L 8.902344 -10.621094 L 8.902344 -9.152344 L 4.578125 -9.152344 C 3.96875 -9.152344 3.460938 -8.640625 3.460938 -8.03125 Z M 1.988281 -6.042969 L 8.902344 -6.042969 L 8.902344 -4.554688 L 3.460938 -4.554688 L 3.460938 -4.21875 C 3.460938 -3.609375 3.96875 -3.101562 4.578125 -3.101562 L 8.902344 -3.101562 L 8.902344 -1.628906 L 4.578125 -1.628906 C 3.183594 -1.628906 1.988281 -2.808594 1.988281 -4.21875 Z M 1.988281 -6.042969 "/></g></g></g><g fill="#ff00ff" fill-opacity="1"><g transform="translate(178.127927, 147.105178)"><g><path d="M 6.042969 -4.488281 L 5.449219 -4.488281 C 5.882812 -4.347656 6.316406 -4.195312 6.703125 -3.929688 C 7.980469 -3.109375 8.824219 -1.65625 8.824219 -0.0078125 L 10.328125 -0.0078125 C 10.328125 -1.53125 9.71875 -3.074219 8.558594 -4.085938 C 9.675781 -4.695312 10.328125 -6.050781 10.328125 -7.289062 L 10.328125 -8.007812 C 10.328125 -10.371094 8.398438 -12.308594 6.042969 -12.308594 L 4.554688 -12.308594 C 2.230469 -12.308594 0.25 -10.386719 0.25 -8.066406 L 0.25 -0.0078125 L 1.753906 -0.0078125 L 1.753906 -8.023438 C 1.753906 -9.570312 3.015625 -10.847656 4.554688 -10.847656 L 6.042969 -10.847656 C 7.578125 -10.847656 8.859375 -9.570312 8.859375 -8.023438 L 8.859375 -7.289062 C 8.859375 -5.75 7.578125 -4.488281 6.042969 -4.488281 Z M 1.929688 -8.007812 L 1.929688 -4.679688 L 6.042969 -4.679688 C 7.472656 -4.679688 8.683594 -5.859375 8.683594 -7.289062 L 8.683594 -8.007812 C 8.683594 -9.460938 7.472656 -10.65625 6.042969 -10.65625 L 4.554688 -10.65625 C 3.035156 -10.65625 1.929688 -9.425781 1.929688 -8.007812 Z M 7.164062 -8.023438 L 7.164062 -7.289062 C 7.164062 -6.675781 6.667969 -6.152344 6.042969 -6.152344 L 3.433594 -6.152344 C 3.433594 -6.785156 3.417969 -7.394531 3.417969 -8.023438 C 3.417969 -8.640625 3.929688 -9.160156 4.554688 -9.160156 L 6.042969 -9.160156 C 6.667969 -9.160156 7.164062 -8.640625 7.164062 -8.023438 Z M 7.144531 -0.0078125 L 8.667969 -0.0078125 C 8.667969 -2.492188 6.570312 -4.488281 4.09375 -4.488281 L 1.929688 -4.488281 L 1.929688 -0.0078125 L 3.433594 -0.0078125 L 3.433594 -3 L 4.113281 -3 C 5.792969 -3 7.144531 -1.671875 7.144531 -0.0078125 Z M 7.144531 -0.0078125 "/></g></g></g><g fill="#ff00ff" fill-opacity="1"><g transform="translate(188.916674, 147.105178)"><g><path d="M 0.335938 -7.980469 L 0.335938 -4.238281 C 0.335938 -1.929688 2.257812 0.0078125 4.578125 0.0078125 L 8.902344 0.0078125 L 8.902344 -1.453125 L 4.578125 -1.453125 C 3.082031 -1.453125 1.8125 -2.699219 1.8125 -4.21875 L 1.8125 -8.03125 C 1.8125 -9.550781 3.082031 -10.796875 4.578125 -10.796875 L 8.902344 -10.796875 L 8.902344 -12.242188 L 4.578125 -12.242188 C 2.257812 -12.242188 0.335938 -10.320312 0.335938 -7.980469 Z M 3.460938 -8.03125 L 3.460938 -7.695312 L 8.902344 -7.695312 L 8.902344 -6.21875 L 1.988281 -6.21875 L 1.988281 -8.03125 C 1.988281 -9.445312 3.183594 -10.621094 4.578125 -10.621094 L 8.902344 -10.621094 L 8.902344 -9.152344 L 4.578125 -9.152344 C 3.96875 -9.152344 3.460938 -8.640625 3.460938 -8.03125 Z M 1.988281 -6.042969 L 8.902344 -6.042969 L 8.902344 -4.554688 L 3.460938 -4.554688 L 3.460938 -4.21875 C 3.460938 -3.609375 3.96875 -3.101562 4.578125 -3.101562 L 8.902344 -3.101562 L 8.902344 -1.628906 L 4.578125 -1.628906 C 3.183594 -1.628906 1.988281 -2.808594 1.988281 -4.21875 Z M 1.988281 -6.042969 "/></g></g></g><g fill="#00ffff" fill-opacity="1"><g transform="translate(156.761481, 147.192208)"><g><path d="M 7.636719 -10.5625 L 7.636719 -6.777344 L 3.527344 -6.777344 L 3.527344 -8.171875 C 3.527344 -10.136719 2.164062 -11.816406 0.335938 -12.335938 L 0.335938 -10.746094 C 1.328125 -10.3125 2.003906 -9.316406 2.003906 -8.191406 L 2.003906 -5.265625 L 9.152344 -5.265625 L 9.152344 -8.191406 C 9.152344 -9.21875 8.523438 -10.121094 7.636719 -10.5625 Z M 10.824219 0 L 9.328125 0 L 9.328125 -8.191406 C 9.328125 -9.316406 8.625 -10.3125 7.636719 -10.746094 L 7.636719 -12.335938 C 9.46875 -11.816406 10.824219 -10.136719 10.824219 -8.171875 Z M 0.335938 0 L 0.335938 -10.5625 C 1.21875 -10.121094 1.832031 -9.21875 1.832031 -8.191406 L 1.832031 0 Z M 9.152344 -5.074219 L 9.152344 0 L 7.636719 0 L 7.636719 -3.570312 L 3.527344 -3.570312 L 3.527344 0 L 2.003906 0 L 2.003906 -5.074219 Z M 9.152344 -5.074219 "/></g></g></g><g fill="#00ffff" fill-opacity="1"><g transform="translate(168.093422, 147.192208)"><g><path d="M 0.335938 -7.980469 L 0.335938 -4.238281 C 0.335938 -1.929688 2.257812 0.0078125 4.578125 0.0078125 L 8.902344 0.0078125 L 8.902344 -1.453125 L 4.578125 -1.453125 C 3.082031 -1.453125 1.8125 -2.699219 1.8125 -4.21875 L 1.8125 -8.03125 C 1.8125 -9.550781 3.082031 -10.796875 4.578125 -10.796875 L 8.902344 -10.796875 L 8.902344 -12.242188 L 4.578125 -12.242188 C 2.257812 -12.242188 0.335938 -10.320312 0.335938 -7.980469 Z M 3.460938 -8.03125 L 3.460938 -7.695312 L 8.902344 -7.695312 L 8.902344 -6.21875 L 1.988281 -6.21875 L 1.988281 -8.03125 C 1.988281 -9.445312 3.183594 -10.621094 4.578125 -10.621094 L 8.902344 -10.621094 L 8.902344 -9.152344 L 4.578125 -9.152344 C 3.96875 -9.152344 3.460938 -8.640625 3.460938 -8.03125 Z M 1.988281 -6.042969 L 8.902344 -6.042969 L 8.902344 -4.554688 L 3.460938 -4.554688 L 3.460938 -4.21875 C 3.460938 -3.609375 3.96875 -3.101562 4.578125 -3.101562 L 8.902344 -3.101562 L 8.902344 -1.628906 L 4.578125 -1.628906 C 3.183594 -1.628906 1.988281 -2.808594 1.988281 -4.21875 Z M 1.988281 -6.042969 "/></g></g></g><g fill="#00ffff" fill-opacity="1"><g transform="translate(177.578494, 147.192208)"><g><path d="M 6.042969 -4.488281 L 5.449219 -4.488281 C 5.882812 -4.347656 6.316406 -4.195312 6.703125 -3.929688 C 7.980469 -3.109375 8.824219 -1.65625 8.824219 -0.0078125 L 10.328125 -0.0078125 C 10.328125 -1.53125 9.71875 -3.074219 8.558594 -4.085938 C 9.675781 -4.695312 10.328125 -6.050781 10.328125 -7.289062 L 10.328125 -8.007812 C 10.328125 -10.371094 8.398438 -12.308594 6.042969 -12.308594 L 4.554688 -12.308594 C 2.230469 -12.308594 0.25 -10.386719 0.25 -8.066406 L 0.25 -0.0078125 L 1.753906 -0.0078125 L 1.753906 -8.023438 C 1.753906 -9.570312 3.015625 -10.847656 4.554688 -10.847656 L 6.042969 -10.847656 C 7.578125 -10.847656 8.859375 -9.570312 8.859375 -8.023438 L 8.859375 -7.289062 C 8.859375 -5.75 7.578125 -4.488281 6.042969 -4.488281 Z M 1.929688 -8.007812 L 1.929688 -4.679688 L 6.042969 -4.679688 C 7.472656 -4.679688 8.683594 -5.859375 8.683594 -7.289062 L 8.683594 -8.007812 C 8.683594 -9.460938 7.472656 -10.65625 6.042969 -10.65625 L 4.554688 -10.65625 C 3.035156 -10.65625 1.929688 -9.425781 1.929688 -8.007812 Z M 7.164062 -8.023438 L 7.164062 -7.289062 C 7.164062 -6.675781 6.667969 -6.152344 6.042969 -6.152344 L 3.433594 -6.152344 C 3.433594 -6.785156 3.417969 -7.394531 3.417969 -8.023438 C 3.417969 -8.640625 3.929688 -9.160156 4.554688 -9.160156 L 6.042969 -9.160156 C 6.667969 -9.160156 7.164062 -8.640625 7.164062 -8.023438 Z M 7.144531 -0.0078125 L 8.667969 -0.0078125 C 8.667969 -2.492188 6.570312 -4.488281 4.09375 -4.488281 L 1.929688 -4.488281 L 1.929688 -0.0078125 L 3.433594 -0.0078125 L 3.433594 -3 L 4.113281 -3 C 5.792969 -3 7.144531 -1.671875 7.144531 -0.0078125 Z M 7.144531 -0.0078125 "/></g></g></g><g fill="#00ffff" fill-opacity="1"><g transform="translate(188.367241, 147.192208)"><g><path d="M 0.335938 -7.980469 L 0.335938 -4.238281 C 0.335938 -1.929688 2.257812 0.0078125 4.578125 0.0078125 L 8.902344 0.0078125 L 8.902344 -1.453125 L 4.578125 -1.453125 C 3.082031 -1.453125 1.8125 -2.699219 1.8125 -4.21875 L 1.8125 -8.03125 C 1.8125 -9.550781 3.082031 -10.796875 4.578125 -10.796875 L 8.902344 -10.796875 L 8.902344 -12.242188 L 4.578125 -12.242188 C 2.257812 -12.242188 0.335938 -10.320312 0.335938 -7.980469 Z M 3.460938 -8.03125 L 3.460938 -7.695312 L 8.902344 -7.695312 L 8.902344 -6.21875 L 1.988281 -6.21875 L 1.988281 -8.03125 C 1.988281 -9.445312 3.183594 -10.621094 4.578125 -10.621094 L 8.902344 -10.621094 L 8.902344 -9.152344 L 4.578125 -9.152344 C 3.96875 -9.152344 3.460938 -8.640625 3.460938 -8.03125 Z M 1.988281 -6.042969 L 8.902344 -6.042969 L 8.902344 -4.554688 L 3.460938 -4.554688 L 3.460938 -4.21875 C 3.460938 -3.609375 3.96875 -3.101562 4.578125 -3.101562 L 8.902344 -3.101562 L 8.902344 -1.628906 L 4.578125 -1.628906 C 3.183594 -1.628906 1.988281 -2.808594 1.988281 -4.21875 Z M 1.988281 -6.042969 "/></g></g></g><g fill="#ffd501" fill-opacity="1"><g transform="translate(157.036197, 147.148694)"><g><path d="M 7.636719 -10.5625 L 7.636719 -6.777344 L 3.527344 -6.777344 L 3.527344 -8.171875 C 3.527344 -10.136719 2.164062 -11.816406 0.335938 -12.335938 L 0.335938 -10.746094 C 1.328125 -10.3125 2.003906 -9.316406 2.003906 -8.191406 L 2.003906 -5.265625 L 9.152344 -5.265625 L 9.152344 -8.191406 C 9.152344 -9.21875 8.523438 -10.121094 7.636719 -10.5625 Z M 10.824219 0 L 9.328125 0 L 9.328125 -8.191406 C 9.328125 -9.316406 8.625 -10.3125 7.636719 -10.746094 L 7.636719 -12.335938 C 9.46875 -11.816406 10.824219 -10.136719 10.824219 -8.171875 Z M 0.335938 0 L 0.335938 -10.5625 C 1.21875 -10.121094 1.832031 -9.21875 1.832031 -8.191406 L 1.832031 0 Z M 9.152344 -5.074219 L 9.152344 0 L 7.636719 0 L 7.636719 -3.570312 L 3.527344 -3.570312 L 3.527344 0 L 2.003906 0 L 2.003906 -5.074219 Z M 9.152344 -5.074219 "/></g></g></g><g fill="#ffd501" fill-opacity="1"><g transform="translate(168.368138, 147.148694)"><g><path d="M 0.335938 -7.980469 L 0.335938 -4.238281 C 0.335938 -1.929688 2.257812 0.0078125 4.578125 0.0078125 L 8.902344 0.0078125 L 8.902344 -1.453125 L 4.578125 -1.453125 C 3.082031 -1.453125 1.8125 -2.699219 1.8125 -4.21875 L 1.8125 -8.03125 C 1.8125 -9.550781 3.082031 -10.796875 4.578125 -10.796875 L 8.902344 -10.796875 L 8.902344 -12.242188 L 4.578125 -12.242188 C 2.257812 -12.242188 0.335938 -10.320312 0.335938 -7.980469 Z M 3.460938 -8.03125 L 3.460938 -7.695312 L 8.902344 -7.695312 L 8.902344 -6.21875 L 1.988281 -6.21875 L 1.988281 -8.03125 C 1.988281 -9.445312 3.183594 -10.621094 4.578125 -10.621094 L 8.902344 -10.621094 L 8.902344 -9.152344 L 4.578125 -9.152344 C 3.96875 -9.152344 3.460938 -8.640625 3.460938 -8.03125 Z M 1.988281 -6.042969 L 8.902344 -6.042969 L 8.902344 -4.554688 L 3.460938 -4.554688 L 3.460938 -4.21875 C 3.460938 -3.609375 3.96875 -3.101562 4.578125 -3.101562 L 8.902344 -3.101562 L 8.902344 -1.628906 L 4.578125 -1.628906 C 3.183594 -1.628906 1.988281 -2.808594 1.988281 -4.21875 Z M 1.988281 -6.042969 "/></g></g></g><g fill="#ffd501" fill-opacity="1"><g transform="translate(177.85321, 147.148694)"><g><path d="M 6.042969 -4.488281 L 5.449219 -4.488281 C 5.882812 -4.347656 6.316406 -4.195312 6.703125 -3.929688 C 7.980469 -3.109375 8.824219 -1.65625 8.824219 -0.0078125 L 10.328125 -0.0078125 C 10.328125 -1.53125 9.71875 -3.074219 8.558594 -4.085938 C 9.675781 -4.695312 10.328125 -6.050781 10.328125 -7.289062 L 10.328125 -8.007812 C 10.328125 -10.371094 8.398438 -12.308594 6.042969 -12.308594 L 4.554688 -12.308594 C 2.230469 -12.308594 0.25 -10.386719 0.25 -8.066406 L 0.25 -0.0078125 L 1.753906 -0.0078125 L 1.753906 -8.023438 C 1.753906 -9.570312 3.015625 -10.847656 4.554688 -10.847656 L 6.042969 -10.847656 C 7.578125 -10.847656 8.859375 -9.570312 8.859375 -8.023438 L 8.859375 -7.289062 C 8.859375 -5.75 7.578125 -4.488281 6.042969 -4.488281 Z M 1.929688 -8.007812 L 1.929688 -4.679688 L 6.042969 -4.679688 C 7.472656 -4.679688 8.683594 -5.859375 8.683594 -7.289062 L 8.683594 -8.007812 C 8.683594 -9.460938 7.472656 -10.65625 6.042969 -10.65625 L 4.554688 -10.65625 C 3.035156 -10.65625 1.929688 -9.425781 1.929688 -8.007812 Z M 7.164062 -8.023438 L 7.164062 -7.289062 C 7.164062 -6.675781 6.667969 -6.152344 6.042969 -6.152344 L 3.433594 -6.152344 C 3.433594 -6.785156 3.417969 -7.394531 3.417969 -8.023438 C 3.417969 -8.640625 3.929688 -9.160156 4.554688 -9.160156 L 6.042969 -9.160156 C 6.667969 -9.160156 7.164062 -8.640625 7.164062 -8.023438 Z M 7.144531 -0.0078125 L 8.667969 -0.0078125 C 8.667969 -2.492188 6.570312 -4.488281 4.09375 -4.488281 L 1.929688 -4.488281 L 1.929688 -0.0078125 L 3.433594 -0.0078125 L 3.433594 -3 L 4.113281 -3 C 5.792969 -3 7.144531 -1.671875 7.144531 -0.0078125 Z M 7.144531 -0.0078125 "/></g></g></g><g fill="#ffd501" fill-opacity="1"><g transform="translate(188.641956, 147.148694)"><g><path d="M 0.335938 -7.980469 L 0.335938 -4.238281 C 0.335938 -1.929688 2.257812 0.0078125 4.578125 0.0078125 L 8.902344 0.0078125 L 8.902344 -1.453125 L 4.578125 -1.453125 C 3.082031 -1.453125 1.8125 -2.699219 1.8125 -4.21875 L 1.8125 -8.03125 C 1.8125 -9.550781 3.082031 -10.796875 4.578125 -10.796875 L 8.902344 -10.796875 L 8.902344 -12.242188 L 4.578125 -12.242188 C 2.257812 -12.242188 0.335938 -10.320312 0.335938 -7.980469 Z M 3.460938 -8.03125 L 3.460938 -7.695312 L 8.902344 -7.695312 L 8.902344 -6.21875 L 1.988281 -6.21875 L 1.988281 -8.03125 C 1.988281 -9.445312 3.183594 -10.621094 4.578125 -10.621094 L 8.902344 -10.621094 L 8.902344 -9.152344 L 4.578125 -9.152344 C 3.96875 -9.152344 3.460938 -8.640625 3.460938 -8.03125 Z M 1.988281 -6.042969 L 8.902344 -6.042969 L 8.902344 -4.554688 L 3.460938 -4.554688 L 3.460938 -4.21875 C 3.460938 -3.609375 3.96875 -3.101562 4.578125 -3.101562 L 8.902344 -3.101562 L 8.902344 -1.628906 L 4.578125 -1.628906 C 3.183594 -1.628906 1.988281 -2.808594 1.988281 -4.21875 Z M 1.988281 -6.042969 "/></g></g></g><g clip-path="url(#b5fcd7e2e9)"><g clip-path="url(#9c567c6e4d)"><g clip-path="url(#75012139c2)"><g clip-path="url(#1265de8856)"><path fill="#ffd501" d="M 148.675781 155.234375 L 151.5 157.859375 C 151.609375 157.960938 151.667969 158.101562 151.675781 158.238281 C 151.679688 158.378906 151.628906 158.523438 151.527344 158.632812 L 147.773438 162.671875 L 150.195312 164.921875 C 150.332031 165.050781 150.398438 165.238281 150.363281 165.421875 C 150.332031 165.609375 150.203125 165.761719 150.035156 165.835938 L 137.171875 171.175781 C 136.972656 171.257812 136.742188 171.214844 136.585938 171.070312 C 136.429688 170.925781 136.371094 170.699219 136.4375 170.496094 L 140.828125 157.277344 C 140.886719 157.097656 141.03125 156.964844 141.214844 156.917969 C 141.398438 156.875 141.589844 156.921875 141.726562 157.050781 L 144.148438 159.300781 L 147.898438 155.265625 C 148.101562 155.039062 148.449219 155.027344 148.675781 155.234375 Z M 133.933594 170.488281 C 133.921875 170.1875 133.667969 169.949219 133.363281 169.960938 L 129.511719 170.101562 C 129.207031 170.109375 128.96875 170.367188 128.980469 170.671875 C 128.992188 170.972656 129.246094 171.210938 129.550781 171.199219 L 133.402344 171.058594 C 133.707031 171.050781 133.945312 170.792969 133.933594 170.488281 Z M 137.355469 173.671875 C 137.054688 173.683594 136.816406 173.941406 136.828125 174.242188 L 136.96875 178.09375 C 136.976562 178.398438 137.234375 178.636719 137.539062 178.625 C 137.839844 178.613281 138.078125 178.359375 138.066406 178.054688 L 137.925781 174.203125 C 137.917969 173.898438 137.660156 173.660156 137.355469 173.671875 Z M 134.960938 167.722656 C 134.957031 167.582031 134.898438 167.445312 134.785156 167.34375 L 131.960938 164.71875 C 131.738281 164.511719 131.390625 164.523438 131.183594 164.746094 C 130.976562 164.96875 130.988281 165.316406 131.210938 165.523438 L 134.035156 168.148438 C 134.257812 168.355469 134.609375 168.34375 134.816406 168.121094 C 134.921875 168.007812 134.96875 167.863281 134.960938 167.722656 Z M 139.6875 173.398438 L 142.511719 176.023438 C 142.734375 176.226562 143.082031 176.214844 143.289062 175.992188 C 143.394531 175.882812 143.441406 175.738281 143.4375 175.597656 C 143.433594 175.457031 143.371094 175.320312 143.261719 175.21875 L 140.4375 172.59375 C 140.214844 172.386719 139.863281 172.398438 139.660156 172.621094 C 139.449219 172.84375 139.460938 173.191406 139.6875 173.398438 Z M 131.582031 175.640625 C 131.378906 175.863281 131.390625 176.210938 131.613281 176.417969 C 131.835938 176.625 132.183594 176.613281 132.390625 176.390625 L 135.015625 173.566406 C 135.121094 173.457031 135.167969 173.3125 135.164062 173.171875 C 135.160156 173.03125 135.097656 172.894531 134.988281 172.789062 C 134.765625 172.585938 134.414062 172.597656 134.210938 172.820312 Z M 131.582031 175.640625 " fill-opacity="1" fill-rule="nonzero"/></g></g></g></g></svg>