<svg xmlns="http://www.w3.org/2000/svg" xmlns:xlink="http://www.w3.org/1999/xlink" width="375" zoomAndPan="magnify" viewBox="0 0 281.25 374.999989" height="500" preserveAspectRatio="xMidYMid meet" version="1.0"><defs><g/><clipPath id="ce37a7e375"><path d="M 145.136719 144.617188 L 168.324219 144.617188 L 168.324219 167.804688 L 145.136719 167.804688 Z M 145.136719 144.617188 " clip-rule="nonzero"/></clipPath></defs><g fill="#ff00ff" fill-opacity="1"><g transform="translate(93.195989, 126.138614)"><g><path d="M 6.5 -12.328125 C 3.042969 -12.328125 0.277344 -9.550781 0.277344 -6.117188 C 0.277344 -2.675781 3.042969 0.09375 6.5 0.09375 C 7.707031 0.09375 8.84375 -0.25 9.820312 -0.871094 L 9.066406 -2.199219 C 8.324219 -1.679688 7.429688 -1.421875 6.5 -1.421875 C 3.902344 -1.421875 1.789062 -3.519531 1.789062 -6.117188 C 1.789062 -8.714844 3.902344 -10.8125 6.5 -10.8125 C 7.429688 -10.8125 8.324219 -10.554688 9.066406 -10.035156 L 9.820312 -11.382812 C 8.84375 -11.984375 7.707031 -12.328125 6.5 -12.328125 Z M 6.5 -10.65625 C 3.988281 -10.65625 1.945312 -8.609375 1.945312 -6.117188 C 1.945312 -3.617188 3.988281 -1.578125 6.5 -1.578125 C 7.414062 -1.578125 8.273438 -1.855469 8.976562 -2.332031 L 8.257812 -3.660156 C 7.738281 -3.292969 7.152344 -3.09375 6.5 -3.09375 C 4.796875 -3.09375 3.460938 -4.429688 3.460938 -6.117188 C 3.460938 -7.804688 4.796875 -9.144531 6.5 -9.144531 C 7.152344 -9.144531 7.738281 -8.933594 8.257812 -8.574219 L 8.976562 -9.902344 C 8.273438 -10.378906 7.414062 -10.65625 6.5 -10.65625 Z M 6.5 -10.65625 "/></g></g></g><g fill="#ff00ff" fill-opacity="1"><g transform="translate(103.466609, 126.138614)"><g><path d="M 3.46875 -4.019531 L 3.46875 -8.765625 C 3.46875 -10.6875 2.207031 -12.320312 0.257812 -12.367188 L 0.257812 -10.746094 C 1.429688 -10.746094 1.964844 -9.902344 1.964844 -8.75 C 1.980469 -7.230469 1.964844 -5.507812 1.964844 -3.96875 C 1.964844 -2.441406 3.417969 -1.671875 4.761719 -1.671875 L 7.152344 -1.671875 L 7.152344 -3.210938 L 4.363281 -3.210938 C 3.886719 -3.210938 3.46875 -3.550781 3.46875 -4.019531 Z M 0.277344 -3.96875 L 0.257812 -10.546875 C 1.355469 -10.546875 1.78125 -9.71875 1.78125 -8.714844 L 1.78125 -3.953125 C 1.761719 -2.28125 3.308594 -1.472656 4.796875 -1.472656 L 7.152344 -1.472656 L 7.152344 0 L 4.65625 0 C 2.492188 0 0.277344 -1.671875 0.277344 -3.96875 Z M 0.277344 -3.96875 "/></g></g></g><g fill="#ff00ff" fill-opacity="1"><g transform="translate(111.079737, 126.138614)"><g><path d="M 0.417969 0 L 1.945312 0 L 1.945312 -12.269531 L 0.417969 -12.269531 Z M 2.121094 0 L 3.636719 0 L 3.636719 -12.269531 L 2.121094 -12.269531 Z M 2.121094 0 "/></g></g></g><g fill="#ff00ff" fill-opacity="1"><g transform="translate(115.483821, 126.138614)"><g><path d="M 6.5 -12.328125 C 3.042969 -12.328125 0.277344 -9.550781 0.277344 -6.117188 C 0.277344 -2.675781 3.042969 0.09375 6.5 0.09375 C 7.707031 0.09375 8.84375 -0.25 9.820312 -0.871094 L 9.066406 -2.199219 C 8.324219 -1.679688 7.429688 -1.421875 6.5 -1.421875 C 3.902344 -1.421875 1.789062 -3.519531 1.789062 -6.117188 C 1.789062 -8.714844 3.902344 -10.8125 6.5 -10.8125 C 7.429688 -10.8125 8.324219 -10.554688 9.066406 -10.035156 L 9.820312 -11.382812 C 8.84375 -11.984375 7.707031 -12.328125 6.5 -12.328125 Z M 6.5 -10.65625 C 3.988281 -10.65625 1.945312 -8.609375 1.945312 -6.117188 C 1.945312 -3.617188 3.988281 -1.578125 6.5 -1.578125 C 7.414062 -1.578125 8.273438 -1.855469 8.976562 -2.332031 L 8.257812 -3.660156 C 7.738281 -3.292969 7.152344 -3.09375 6.5 -3.09375 C 4.796875 -3.09375 3.460938 -4.429688 3.460938 -6.117188 C 3.460938 -7.804688 4.796875 -9.144531 6.5 -9.144531 C 7.152344 -9.144531 7.738281 -8.933594 8.257812 -8.574219 L 8.976562 -9.902344 C 8.273438 -10.378906 7.414062 -10.65625 6.5 -10.65625 Z M 6.5 -10.65625 "/></g></g></g><g fill="#ff00ff" fill-opacity="1"><g transform="translate(125.75444, 126.138614)"><g><path d="M 0.285156 -0.0234375 L 1.789062 -0.0234375 L 1.789062 -12.25 L 0.285156 -12.25 Z M 1.980469 -12.25 L 1.980469 -6.226562 L 5.015625 -6.226562 L 7.882812 -9.335938 C 8.316406 -9.804688 8.492188 -10.28125 8.492188 -10.914062 L 8.492188 -12.25 L 7.019531 -12.25 L 7.019531 -10.972656 C 7.019531 -10.707031 6.960938 -10.488281 6.785156 -10.296875 L 4.460938 -7.714844 L 3.484375 -7.714844 L 3.484375 -12.25 Z M 8.015625 -9.21875 L 5.140625 -6.132812 L 8.015625 -3.058594 C 8.457031 -2.582031 8.667969 -2.074219 8.667969 -1.371094 L 8.667969 -0.0234375 L 10.128906 -0.0234375 L 10.128906 -1.355469 C 10.128906 -2.304688 9.929688 -3.152344 9.25 -3.851562 L 7.128906 -6.132812 L 9.25 -8.425781 C 9.929688 -9.125 10.128906 -9.960938 10.128906 -10.921875 L 10.128906 -12.25 L 8.667969 -12.25 L 8.667969 -10.898438 C 8.667969 -10.203125 8.457031 -9.695312 8.015625 -9.21875 Z M 4.570312 -4.539062 L 6.785156 -1.988281 C 6.960938 -1.789062 7.019531 -1.570312 7.019531 -1.304688 L 7.019531 -0.0234375 L 8.492188 -0.0234375 L 8.492188 -1.363281 C 8.492188 -1.996094 8.316406 -2.472656 7.882812 -2.941406 L 5.015625 -6.050781 L 1.980469 -6.050781 L 1.980469 -0.0234375 L 3.484375 -0.0234375 L 3.484375 -4.539062 Z M 4.570312 -4.539062 "/></g></g></g><g fill="#00ffff" fill-opacity="1"><g transform="translate(92.646542, 126.225643)"><g><path d="M 6.5 -12.328125 C 3.042969 -12.328125 0.277344 -9.550781 0.277344 -6.117188 C 0.277344 -2.675781 3.042969 0.09375 6.5 0.09375 C 7.707031 0.09375 8.84375 -0.25 9.820312 -0.871094 L 9.066406 -2.199219 C 8.324219 -1.679688 7.429688 -1.421875 6.5 -1.421875 C 3.902344 -1.421875 1.789062 -3.519531 1.789062 -6.117188 C 1.789062 -8.714844 3.902344 -10.8125 6.5 -10.8125 C 7.429688 -10.8125 8.324219 -10.554688 9.066406 -10.035156 L 9.820312 -11.382812 C 8.84375 -11.984375 7.707031 -12.328125 6.5 -12.328125 Z M 6.5 -10.65625 C 3.988281 -10.65625 1.945312 -8.609375 1.945312 -6.117188 C 1.945312 -3.617188 3.988281 -1.578125 6.5 -1.578125 C 7.414062 -1.578125 8.273438 -1.855469 8.976562 -2.332031 L 8.257812 -3.660156 C 7.738281 -3.292969 7.152344 -3.09375 6.5 -3.09375 C 4.796875 -3.09375 3.460938 -4.429688 3.460938 -6.117188 C 3.460938 -7.804688 4.796875 -9.144531 6.5 -9.144531 C 7.152344 -9.144531 7.738281 -8.933594 8.257812 -8.574219 L 8.976562 -9.902344 C 8.273438 -10.378906 7.414062 -10.65625 6.5 -10.65625 Z M 6.5 -10.65625 "/></g></g></g><g fill="#00ffff" fill-opacity="1"><g transform="translate(102.917161, 126.225643)"><g><path d="M 3.46875 -4.019531 L 3.46875 -8.765625 C 3.46875 -10.6875 2.207031 -12.320312 0.257812 -12.367188 L 0.257812 -10.746094 C 1.429688 -10.746094 1.964844 -9.902344 1.964844 -8.75 C 1.980469 -7.230469 1.964844 -5.507812 1.964844 -3.96875 C 1.964844 -2.441406 3.417969 -1.671875 4.761719 -1.671875 L 7.152344 -1.671875 L 7.152344 -3.210938 L 4.363281 -3.210938 C 3.886719 -3.210938 3.46875 -3.550781 3.46875 -4.019531 Z M 0.277344 -3.96875 L 0.257812 -10.546875 C 1.355469 -10.546875 1.78125 -9.71875 1.78125 -8.714844 L 1.78125 -3.953125 C 1.761719 -2.28125 3.308594 -1.472656 4.796875 -1.472656 L 7.152344 -1.472656 L 7.152344 0 L 4.65625 0 C 2.492188 0 0.277344 -1.671875 0.277344 -3.96875 Z M 0.277344 -3.96875 "/></g></g></g><g fill="#00ffff" fill-opacity="1"><g transform="translate(110.53029, 126.225643)"><g><path d="M 0.417969 0 L 1.945312 0 L 1.945312 -12.269531 L 0.417969 -12.269531 Z M 2.121094 0 L 3.636719 0 L 3.636719 -12.269531 L 2.121094 -12.269531 Z M 2.121094 0 "/></g></g></g><g fill="#00ffff" fill-opacity="1"><g transform="translate(114.934373, 126.225643)"><g><path d="M 6.5 -12.328125 C 3.042969 -12.328125 0.277344 -9.550781 0.277344 -6.117188 C 0.277344 -2.675781 3.042969 0.09375 6.5 0.09375 C 7.707031 0.09375 8.84375 -0.25 9.820312 -0.871094 L 9.066406 -2.199219 C 8.324219 -1.679688 7.429688 -1.421875 6.5 -1.421875 C 3.902344 -1.421875 1.789062 -3.519531 1.789062 -6.117188 C 1.789062 -8.714844 3.902344 -10.8125 6.5 -10.8125 C 7.429688 -10.8125 8.324219 -10.554688 9.066406 -10.035156 L 9.820312 -11.382812 C 8.84375 -11.984375 7.707031 -12.328125 6.5 -12.328125 Z M 6.5 -10.65625 C 3.988281 -10.65625 1.945312 -8.609375 1.945312 -6.117188 C 1.945312 -3.617188 3.988281 -1.578125 6.5 -1.578125 C 7.414062 -1.578125 8.273438 -1.855469 8.976562 -2.332031 L 8.257812 -3.660156 C 7.738281 -3.292969 7.152344 -3.09375 6.5 -3.09375 C 4.796875 -3.09375 3.460938 -4.429688 3.460938 -6.117188 C 3.460938 -7.804688 4.796875 -9.144531 6.5 -9.144531 C 7.152344 -9.144531 7.738281 -8.933594 8.257812 -8.574219 L 8.976562 -9.902344 C 8.273438 -10.378906 7.414062 -10.65625 6.5 -10.65625 Z M 6.5 -10.65625 "/></g></g></g><g fill="#00ffff" fill-opacity="1"><g transform="translate(125.204992, 126.225643)"><g><path d="M 0.285156 -0.0234375 L 1.789062 -0.0234375 L 1.789062 -12.25 L 0.285156 -12.25 Z M 1.980469 -12.25 L 1.980469 -6.226562 L 5.015625 -6.226562 L 7.882812 -9.335938 C 8.316406 -9.804688 8.492188 -10.28125 8.492188 -10.914062 L 8.492188 -12.25 L 7.019531 -12.25 L 7.019531 -10.972656 C 7.019531 -10.707031 6.960938 -10.488281 6.785156 -10.296875 L 4.460938 -7.714844 L 3.484375 -7.714844 L 3.484375 -12.25 Z M 8.015625 -9.21875 L 5.140625 -6.132812 L 8.015625 -3.058594 C 8.457031 -2.582031 8.667969 -2.074219 8.667969 -1.371094 L 8.667969 -0.0234375 L 10.128906 -0.0234375 L 10.128906 -1.355469 C 10.128906 -2.304688 9.929688 -3.152344 9.25 -3.851562 L 7.128906 -6.132812 L 9.25 -8.425781 C 9.929688 -9.125 10.128906 -9.960938 10.128906 -10.921875 L 10.128906 -12.25 L 8.667969 -12.25 L 8.667969 -10.898438 C 8.667969 -10.203125 8.457031 -9.695312 8.015625 -9.21875 Z M 4.570312 -4.539062 L 6.785156 -1.988281 C 6.960938 -1.789062 7.019531 -1.570312 7.019531 -1.304688 L 7.019531 -0.0234375 L 8.492188 -0.0234375 L 8.492188 -1.363281 C 8.492188 -1.996094 8.316406 -2.472656 7.882812 -2.941406 L 5.015625 -6.050781 L 1.980469 -6.050781 L 1.980469 -0.0234375 L 3.484375 -0.0234375 L 3.484375 -4.539062 Z M 4.570312 -4.539062 "/></g></g></g><g fill="#ffd501" fill-opacity="1"><g transform="translate(92.921264, 126.182129)"><g><path d="M 6.5 -12.328125 C 3.042969 -12.328125 0.277344 -9.550781 0.277344 -6.117188 C 0.277344 -2.675781 3.042969 0.09375 6.5 0.09375 C 7.707031 0.09375 8.84375 -0.25 9.820312 -0.871094 L 9.066406 -2.199219 C 8.324219 -1.679688 7.429688 -1.421875 6.5 -1.421875 C 3.902344 -1.421875 1.789062 -3.519531 1.789062 -6.117188 C 1.789062 -8.714844 3.902344 -10.8125 6.5 -10.8125 C 7.429688 -10.8125 8.324219 -10.554688 9.066406 -10.035156 L 9.820312 -11.382812 C 8.84375 -11.984375 7.707031 -12.328125 6.5 -12.328125 Z M 6.5 -10.65625 C 3.988281 -10.65625 1.945312 -8.609375 1.945312 -6.117188 C 1.945312 -3.617188 3.988281 -1.578125 6.5 -1.578125 C 7.414062 -1.578125 8.273438 -1.855469 8.976562 -2.332031 L 8.257812 -3.660156 C 7.738281 -3.292969 7.152344 -3.09375 6.5 -3.09375 C 4.796875 -3.09375 3.460938 -4.429688 3.460938 -6.117188 C 3.460938 -7.804688 4.796875 -9.144531 6.5 -9.144531 C 7.152344 -9.144531 7.738281 -8.933594 8.257812 -8.574219 L 8.976562 -9.902344 C 8.273438 -10.378906 7.414062 -10.65625 6.5 -10.65625 Z M 6.5 -10.65625 "/></g></g></g><g fill="#ffd501" fill-opacity="1"><g transform="translate(103.191884, 126.182129)"><g><path d="M 3.46875 -4.019531 L 3.46875 -8.765625 C 3.46875 -10.6875 2.207031 -12.320312 0.257812 -12.367188 L 0.257812 -10.746094 C 1.429688 -10.746094 1.964844 -9.902344 1.964844 -8.75 C 1.980469 -7.230469 1.964844 -5.507812 1.964844 -3.96875 C 1.964844 -2.441406 3.417969 -1.671875 4.761719 -1.671875 L 7.152344 -1.671875 L 7.152344 -3.210938 L 4.363281 -3.210938 C 3.886719 -3.210938 3.46875 -3.550781 3.46875 -4.019531 Z M 0.277344 -3.96875 L 0.257812 -10.546875 C 1.355469 -10.546875 1.78125 -9.71875 1.78125 -8.714844 L 1.78125 -3.953125 C 1.761719 -2.28125 3.308594 -1.472656 4.796875 -1.472656 L 7.152344 -1.472656 L 7.152344 0 L 4.65625 0 C 2.492188 0 0.277344 -1.671875 0.277344 -3.96875 Z M 0.277344 -3.96875 "/></g></g></g><g fill="#ffd501" fill-opacity="1"><g transform="translate(110.805012, 126.182129)"><g><path d="M 0.417969 0 L 1.945312 0 L 1.945312 -12.269531 L 0.417969 -12.269531 Z M 2.121094 0 L 3.636719 0 L 3.636719 -12.269531 L 2.121094 -12.269531 Z M 2.121094 0 "/></g></g></g><g fill="#ffd501" fill-opacity="1"><g transform="translate(115.209096, 126.182129)"><g><path d="M 6.5 -12.328125 C 3.042969 -12.328125 0.277344 -9.550781 0.277344 -6.117188 C 0.277344 -2.675781 3.042969 0.09375 6.5 0.09375 C 7.707031 0.09375 8.84375 -0.25 9.820312 -0.871094 L 9.066406 -2.199219 C 8.324219 -1.679688 7.429688 -1.421875 6.5 -1.421875 C 3.902344 -1.421875 1.789062 -3.519531 1.789062 -6.117188 C 1.789062 -8.714844 3.902344 -10.8125 6.5 -10.8125 C 7.429688 -10.8125 8.324219 -10.554688 9.066406 -10.035156 L 9.820312 -11.382812 C 8.84375 -11.984375 7.707031 -12.328125 6.5 -12.328125 Z M 6.5 -10.65625 C 3.988281 -10.65625 1.945312 -8.609375 1.945312 -6.117188 C 1.945312 -3.617188 3.988281 -1.578125 6.5 -1.578125 C 7.414062 -1.578125 8.273438 -1.855469 8.976562 -2.332031 L 8.257812 -3.660156 C 7.738281 -3.292969 7.152344 -3.09375 6.5 -3.09375 C 4.796875 -3.09375 3.460938 -4.429688 3.460938 -6.117188 C 3.460938 -7.804688 4.796875 -9.144531 6.5 -9.144531 C 7.152344 -9.144531 7.738281 -8.933594 8.257812 -8.574219 L 8.976562 -9.902344 C 8.273438 -10.378906 7.414062 -10.65625 6.5 -10.65625 Z M 6.5 -10.65625 "/></g></g></g><g fill="#ffd501" fill-opacity="1"><g transform="translate(125.479715, 126.182129)"><g><path d="M 0.285156 -0.0234375 L 1.789062 -0.0234375 L 1.789062 -12.25 L 0.285156 -12.25 Z M 1.980469 -12.25 L 1.980469 -6.226562 L 5.015625 -6.226562 L 7.882812 -9.335938 C 8.316406 -9.804688 8.492188 -10.28125 8.492188 -10.914062 L 8.492188 -12.25 L 7.019531 -12.25 L 7.019531 -10.972656 C 7.019531 -10.707031 6.960938 -10.488281 6.785156 -10.296875 L 4.460938 -7.714844 L 3.484375 -7.714844 L 3.484375 -12.25 Z M 8.015625 -9.21875 L 5.140625 -6.132812 L 8.015625 -3.058594 C 8.457031 -2.582031 8.667969 -2.074219 8.667969 -1.371094 L 8.667969 -0.0234375 L 10.128906 -0.0234375 L 10.128906 -1.355469 C 10.128906 -2.304688 9.929688 -3.152344 9.25 -3.851562 L 7.128906 -6.132812 L 9.25 -8.425781 C 9.929688 -9.125 10.128906 -9.960938 10.128906 -10.921875 L 10.128906 -12.25 L 8.667969 -12.25 L 8.667969 -10.898438 C 8.667969 -10.203125 8.457031 -9.695312 8.015625 -9.21875 Z M 4.570312 -4.539062 L 6.785156 -1.988281 C 6.960938 -1.789062 7.019531 -1.570312 7.019531 -1.304688 L 7.019531 -0.0234375 L 8.492188 -0.0234375 L 8.492188 -1.363281 C 8.492188 -1.996094 8.316406 -2.472656 7.882812 -2.941406 L 5.015625 -6.050781 L 1.980469 -6.050781 L 1.980469 -0.0234375 L 3.484375 -0.0234375 L 3.484375 -4.539062 Z M 4.570312 -4.539062 "/></g></g></g><g fill="#ff00ff" fill-opacity="1"><g transform="translate(136.350875, 126.138614)"><g/></g></g><g fill="#00ffff" fill-opacity="1"><g transform="translate(135.801427, 126.225643)"><g/></g></g><g fill="#ffd501" fill-opacity="1"><g transform="translate(136.07615, 126.182129)"><g/></g></g><g fill="#ff00ff" fill-opacity="1"><g transform="translate(96.309535, 142.914676)"><g><path d="M 7.636719 -10.5625 L 7.636719 -6.777344 L 3.527344 -6.777344 L 3.527344 -8.171875 C 3.527344 -10.136719 2.164062 -11.816406 0.335938 -12.335938 L 0.335938 -10.746094 C 1.328125 -10.3125 2.003906 -9.316406 2.003906 -8.191406 L 2.003906 -5.265625 L 9.152344 -5.265625 L 9.152344 -8.191406 C 9.152344 -9.21875 8.523438 -10.121094 7.636719 -10.5625 Z M 10.824219 0 L 9.328125 0 L 9.328125 -8.191406 C 9.328125 -9.316406 8.625 -10.3125 7.636719 -10.746094 L 7.636719 -12.335938 C 9.46875 -11.816406 10.824219 -10.136719 10.824219 -8.171875 Z M 0.335938 0 L 0.335938 -10.5625 C 1.21875 -10.121094 1.832031 -9.21875 1.832031 -8.191406 L 1.832031 0 Z M 9.152344 -5.074219 L 9.152344 0 L 7.636719 0 L 7.636719 -3.570312 L 3.527344 -3.570312 L 3.527344 0 L 2.003906 0 L 2.003906 -5.074219 Z M 9.152344 -5.074219 "/></g></g></g><g fill="#ff00ff" fill-opacity="1"><g transform="translate(107.641476, 142.914676)"><g><path d="M 0.335938 -7.980469 L 0.335938 -4.238281 C 0.335938 -1.929688 2.257812 0.0078125 4.578125 0.0078125 L 8.902344 0.0078125 L 8.902344 -1.453125 L 4.578125 -1.453125 C 3.082031 -1.453125 1.8125 -2.699219 1.8125 -4.21875 L 1.8125 -8.03125 C 1.8125 -9.550781 3.082031 -10.796875 4.578125 -10.796875 L 8.902344 -10.796875 L 8.902344 -12.242188 L 4.578125 -12.242188 C 2.257812 -12.242188 0.335938 -10.320312 0.335938 -7.980469 Z M 3.460938 -8.03125 L 3.460938 -7.695312 L 8.902344 -7.695312 L 8.902344 -6.21875 L 1.988281 -6.21875 L 1.988281 -8.03125 C 1.988281 -9.445312 3.183594 -10.621094 4.578125 -10.621094 L 8.902344 -10.621094 L 8.902344 -9.152344 L 4.578125 -9.152344 C 3.96875 -9.152344 3.460938 -8.640625 3.460938 -8.03125 Z M 1.988281 -6.042969 L 8.902344 -6.042969 L 8.902344 -4.554688 L 3.460938 -4.554688 L 3.460938 -4.21875 C 3.460938 -3.609375 3.96875 -3.101562 4.578125 -3.101562 L 8.902344 -3.101562 L 8.902344 -1.628906 L 4.578125 -1.628906 C 3.183594 -1.628906 1.988281 -2.808594 1.988281 -4.21875 Z M 1.988281 -6.042969 "/></g></g></g><g fill="#ff00ff" fill-opacity="1"><g transform="translate(117.126547, 142.914676)"><g><path d="M 6.042969 -4.488281 L 5.449219 -4.488281 C 5.882812 -4.347656 6.316406 -4.195312 6.703125 -3.929688 C 7.980469 -3.109375 8.824219 -1.65625 8.824219 -0.0078125 L 10.328125 -0.0078125 C 10.328125 -1.53125 9.71875 -3.074219 8.558594 -4.085938 C 9.675781 -4.695312 10.328125 -6.050781 10.328125 -7.289062 L 10.328125 -8.007812 C 10.328125 -10.371094 8.398438 -12.308594 6.042969 -12.308594 L 4.554688 -12.308594 C 2.230469 -12.308594 0.25 -10.386719 0.25 -8.066406 L 0.25 -0.0078125 L 1.753906 -0.0078125 L 1.753906 -8.023438 C 1.753906 -9.570312 3.015625 -10.847656 4.554688 -10.847656 L 6.042969 -10.847656 C 7.578125 -10.847656 8.859375 -9.570312 8.859375 -8.023438 L 8.859375 -7.289062 C 8.859375 -5.75 7.578125 -4.488281 6.042969 -4.488281 Z M 1.929688 -8.007812 L 1.929688 -4.679688 L 6.042969 -4.679688 C 7.472656 -4.679688 8.683594 -5.859375 8.683594 -7.289062 L 8.683594 -8.007812 C 8.683594 -9.460938 7.472656 -10.65625 6.042969 -10.65625 L 4.554688 -10.65625 C 3.035156 -10.65625 1.929688 -9.425781 1.929688 -8.007812 Z M 7.164062 -8.023438 L 7.164062 -7.289062 C 7.164062 -6.675781 6.667969 -6.152344 6.042969 -6.152344 L 3.433594 -6.152344 C 3.433594 -6.785156 3.417969 -7.394531 3.417969 -8.023438 C 3.417969 -8.640625 3.929688 -9.160156 4.554688 -9.160156 L 6.042969 -9.160156 C 6.667969 -9.160156 7.164062 -8.640625 7.164062 -8.023438 Z M 7.144531 -0.0078125 L 8.667969 -0.0078125 C 8.667969 -2.492188 6.570312 -4.488281 4.09375 -4.488281 L 1.929688 -4.488281 L 1.929688 -0.0078125 L 3.433594 -0.0078125 L 3.433594 -3 L 4.113281 -3 C 5.792969 -3 7.144531 -1.671875 7.144531 -0.0078125 Z M 7.144531 -0.0078125 "/></g></g></g><g fill="#ff00ff" fill-opacity="1"><g transform="translate(127.915294, 142.914676)"><g><path d="M 0.335938 -7.980469 L 0.335938 -4.238281 C 0.335938 -1.929688 2.257812 0.0078125 4.578125 0.0078125 L 8.902344 0.0078125 L 8.902344 -1.453125 L 4.578125 -1.453125 C 3.082031 -1.453125 1.8125 -2.699219 1.8125 -4.21875 L 1.8125 -8.03125 C 1.8125 -9.550781 3.082031 -10.796875 4.578125 -10.796875 L 8.902344 -10.796875 L 8.902344 -12.242188 L 4.578125 -12.242188 C 2.257812 -12.242188 0.335938 -10.320312 0.335938 -7.980469 Z M 3.460938 -8.03125 L 3.460938 -7.695312 L 8.902344 -7.695312 L 8.902344 -6.21875 L 1.988281 -6.21875 L 1.988281 -8.03125 C 1.988281 -9.445312 3.183594 -10.621094 4.578125 -10.621094 L 8.902344 -10.621094 L 8.902344 -9.152344 L 4.578125 -9.152344 C 3.96875 -9.152344 3.460938 -8.640625 3.460938 -8.03125 Z M 1.988281 -6.042969 L 8.902344 -6.042969 L 8.902344 -4.554688 L 3.460938 -4.554688 L 3.460938 -4.21875 C 3.460938 -3.609375 3.96875 -3.101562 4.578125 -3.101562 L 8.902344 -3.101562 L 8.902344 -1.628906 L 4.578125 -1.628906 C 3.183594 -1.628906 1.988281 -2.808594 1.988281 -4.21875 Z M 1.988281 -6.042969 "/></g></g></g><g fill="#00ffff" fill-opacity="1"><g transform="translate(95.760087, 143.001705)"><g><path d="M 7.636719 -10.5625 L 7.636719 -6.777344 L 3.527344 -6.777344 L 3.527344 -8.171875 C 3.527344 -10.136719 2.164062 -11.816406 0.335938 -12.335938 L 0.335938 -10.746094 C 1.328125 -10.3125 2.003906 -9.316406 2.003906 -8.191406 L 2.003906 -5.265625 L 9.152344 -5.265625 L 9.152344 -8.191406 C 9.152344 -9.21875 8.523438 -10.121094 7.636719 -10.5625 Z M 10.824219 0 L 9.328125 0 L 9.328125 -8.191406 C 9.328125 -9.316406 8.625 -10.3125 7.636719 -10.746094 L 7.636719 -12.335938 C 9.46875 -11.816406 10.824219 -10.136719 10.824219 -8.171875 Z M 0.335938 0 L 0.335938 -10.5625 C 1.21875 -10.121094 1.832031 -9.21875 1.832031 -8.191406 L 1.832031 0 Z M 9.152344 -5.074219 L 9.152344 0 L 7.636719 0 L 7.636719 -3.570312 L 3.527344 -3.570312 L 3.527344 0 L 2.003906 0 L 2.003906 -5.074219 Z M 9.152344 -5.074219 "/></g></g></g><g fill="#00ffff" fill-opacity="1"><g transform="translate(107.092028, 143.001705)"><g><path d="M 0.335938 -7.980469 L 0.335938 -4.238281 C 0.335938 -1.929688 2.257812 0.0078125 4.578125 0.0078125 L 8.902344 0.0078125 L 8.902344 -1.453125 L 4.578125 -1.453125 C 3.082031 -1.453125 1.8125 -2.699219 1.8125 -4.21875 L 1.8125 -8.03125 C 1.8125 -9.550781 3.082031 -10.796875 4.578125 -10.796875 L 8.902344 -10.796875 L 8.902344 -12.242188 L 4.578125 -12.242188 C 2.257812 -12.242188 0.335938 -10.320312 0.335938 -7.980469 Z M 3.460938 -8.03125 L 3.460938 -7.695312 L 8.902344 -7.695312 L 8.902344 -6.21875 L 1.988281 -6.21875 L 1.988281 -8.03125 C 1.988281 -9.445312 3.183594 -10.621094 4.578125 -10.621094 L 8.902344 -10.621094 L 8.902344 -9.152344 L 4.578125 -9.152344 C 3.96875 -9.152344 3.460938 -8.640625 3.460938 -8.03125 Z M 1.988281 -6.042969 L 8.902344 -6.042969 L 8.902344 -4.554688 L 3.460938 -4.554688 L 3.460938 -4.21875 C 3.460938 -3.609375 3.96875 -3.101562 4.578125 -3.101562 L 8.902344 -3.101562 L 8.902344 -1.628906 L 4.578125 -1.628906 C 3.183594 -1.628906 1.988281 -2.808594 1.988281 -4.21875 Z M 1.988281 -6.042969 "/></g></g></g><g fill="#00ffff" fill-opacity="1"><g transform="translate(116.5771, 143.001705)"><g><path d="M 6.042969 -4.488281 L 5.449219 -4.488281 C 5.882812 -4.347656 6.316406 -4.195312 6.703125 -3.929688 C 7.980469 -3.109375 8.824219 -1.65625 8.824219 -0.0078125 L 10.328125 -0.0078125 C 10.328125 -1.53125 9.71875 -3.074219 8.558594 -4.085938 C 9.675781 -4.695312 10.328125 -6.050781 10.328125 -7.289062 L 10.328125 -8.007812 C 10.328125 -10.371094 8.398438 -12.308594 6.042969 -12.308594 L 4.554688 -12.308594 C 2.230469 -12.308594 0.25 -10.386719 0.25 -8.066406 L 0.25 -0.0078125 L 1.753906 -0.0078125 L 1.753906 -8.023438 C 1.753906 -9.570312 3.015625 -10.847656 4.554688 -10.847656 L 6.042969 -10.847656 C 7.578125 -10.847656 8.859375 -9.570312 8.859375 -8.023438 L 8.859375 -7.289062 C 8.859375 -5.75 7.578125 -4.488281 6.042969 -4.488281 Z M 1.929688 -8.007812 L 1.929688 -4.679688 L 6.042969 -4.679688 C 7.472656 -4.679688 8.683594 -5.859375 8.683594 -7.289062 L 8.683594 -8.007812 C 8.683594 -9.460938 7.472656 -10.65625 6.042969 -10.65625 L 4.554688 -10.65625 C 3.035156 -10.65625 1.929688 -9.425781 1.929688 -8.007812 Z M 7.164062 -8.023438 L 7.164062 -7.289062 C 7.164062 -6.675781 6.667969 -6.152344 6.042969 -6.152344 L 3.433594 -6.152344 C 3.433594 -6.785156 3.417969 -7.394531 3.417969 -8.023438 C 3.417969 -8.640625 3.929688 -9.160156 4.554688 -9.160156 L 6.042969 -9.160156 C 6.667969 -9.160156 7.164062 -8.640625 7.164062 -8.023438 Z M 7.144531 -0.0078125 L 8.667969 -0.0078125 C 8.667969 -2.492188 6.570312 -4.488281 4.09375 -4.488281 L 1.929688 -4.488281 L 1.929688 -0.0078125 L 3.433594 -0.0078125 L 3.433594 -3 L 4.113281 -3 C 5.792969 -3 7.144531 -1.671875 7.144531 -0.0078125 Z M 7.144531 -0.0078125 "/></g></g></g><g fill="#00ffff" fill-opacity="1"><g transform="translate(127.365846, 143.001705)"><g><path d="M 0.335938 -7.980469 L 0.335938 -4.238281 C 0.335938 -1.929688 2.257812 0.0078125 4.578125 0.0078125 L 8.902344 0.0078125 L 8.902344 -1.453125 L 4.578125 -1.453125 C 3.082031 -1.453125 1.8125 -2.699219 1.8125 -4.21875 L 1.8125 -8.03125 C 1.8125 -9.550781 3.082031 -10.796875 4.578125 -10.796875 L 8.902344 -10.796875 L 8.902344 -12.242188 L 4.578125 -12.242188 C 2.257812 -12.242188 0.335938 -10.320312 0.335938 -7.980469 Z M 3.460938 -8.03125 L 3.460938 -7.695312 L 8.902344 -7.695312 L 8.902344 -6.21875 L 1.988281 -6.21875 L 1.988281 -8.03125 C 1.988281 -9.445312 3.183594 -10.621094 4.578125 -10.621094 L 8.902344 -10.621094 L 8.902344 -9.152344 L 4.578125 -9.152344 C 3.96875 -9.152344 3.460938 -8.640625 3.460938 -8.03125 Z M 1.988281 -6.042969 L 8.902344 -6.042969 L 8.902344 -4.554688 L 3.460938 -4.554688 L 3.460938 -4.21875 C 3.460938 -3.609375 3.96875 -3.101562 4.578125 -3.101562 L 8.902344 -3.101562 L 8.902344 -1.628906 L 4.578125 -1.628906 C 3.183594 -1.628906 1.988281 -2.808594 1.988281 -4.21875 Z M 1.988281 -6.042969 "/></g></g></g><g fill="#ffd501" fill-opacity="1"><g transform="translate(96.03481, 142.958192)"><g><path d="M 7.636719 -10.5625 L 7.636719 -6.777344 L 3.527344 -6.777344 L 3.527344 -8.171875 C 3.527344 -10.136719 2.164062 -11.816406 0.335938 -12.335938 L 0.335938 -10.746094 C 1.328125 -10.3125 2.003906 -9.316406 2.003906 -8.191406 L 2.003906 -5.265625 L 9.152344 -5.265625 L 9.152344 -8.191406 C 9.152344 -9.21875 8.523438 -10.121094 7.636719 -10.5625 Z M 10.824219 0 L 9.328125 0 L 9.328125 -8.191406 C 9.328125 -9.316406 8.625 -10.3125 7.636719 -10.746094 L 7.636719 -12.335938 C 9.46875 -11.816406 10.824219 -10.136719 10.824219 -8.171875 Z M 0.335938 0 L 0.335938 -10.5625 C 1.21875 -10.121094 1.832031 -9.21875 1.832031 -8.191406 L 1.832031 0 Z M 9.152344 -5.074219 L 9.152344 0 L 7.636719 0 L 7.636719 -3.570312 L 3.527344 -3.570312 L 3.527344 0 L 2.003906 0 L 2.003906 -5.074219 Z M 9.152344 -5.074219 "/></g></g></g><g fill="#ffd501" fill-opacity="1"><g transform="translate(107.366751, 142.958192)"><g><path d="M 0.335938 -7.980469 L 0.335938 -4.238281 C 0.335938 -1.929688 2.257812 0.0078125 4.578125 0.0078125 L 8.902344 0.0078125 L 8.902344 -1.453125 L 4.578125 -1.453125 C 3.082031 -1.453125 1.8125 -2.699219 1.8125 -4.21875 L 1.8125 -8.03125 C 1.8125 -9.550781 3.082031 -10.796875 4.578125 -10.796875 L 8.902344 -10.796875 L 8.902344 -12.242188 L 4.578125 -12.242188 C 2.257812 -12.242188 0.335938 -10.320312 0.335938 -7.980469 Z M 3.460938 -8.03125 L 3.460938 -7.695312 L 8.902344 -7.695312 L 8.902344 -6.21875 L 1.988281 -6.21875 L 1.988281 -8.03125 C 1.988281 -9.445312 3.183594 -10.621094 4.578125 -10.621094 L 8.902344 -10.621094 L 8.902344 -9.152344 L 4.578125 -9.152344 C 3.96875 -9.152344 3.460938 -8.640625 3.460938 -8.03125 Z M 1.988281 -6.042969 L 8.902344 -6.042969 L 8.902344 -4.554688 L 3.460938 -4.554688 L 3.460938 -4.21875 C 3.460938 -3.609375 3.96875 -3.101562 4.578125 -3.101562 L 8.902344 -3.101562 L 8.902344 -1.628906 L 4.578125 -1.628906 C 3.183594 -1.628906 1.988281 -2.808594 1.988281 -4.21875 Z M 1.988281 -6.042969 "/></g></g></g><g fill="#ffd501" fill-opacity="1"><g transform="translate(116.851822, 142.958192)"><g><path d="M 6.042969 -4.488281 L 5.449219 -4.488281 C 5.882812 -4.347656 6.316406 -4.195312 6.703125 -3.929688 C 7.980469 -3.109375 8.824219 -1.65625 8.824219 -0.0078125 L 10.328125 -0.0078125 C 10.328125 -1.53125 9.71875 -3.074219 8.558594 -4.085938 C 9.675781 -4.695312 10.328125 -6.050781 10.328125 -7.289062 L 10.328125 -8.007812 C 10.328125 -10.371094 8.398438 -12.308594 6.042969 -12.308594 L 4.554688 -12.308594 C 2.230469 -12.308594 0.25 -10.386719 0.25 -8.066406 L 0.25 -0.0078125 L 1.753906 -0.0078125 L 1.753906 -8.023438 C 1.753906 -9.570312 3.015625 -10.847656 4.554688 -10.847656 L 6.042969 -10.847656 C 7.578125 -10.847656 8.859375 -9.570312 8.859375 -8.023438 L 8.859375 -7.289062 C 8.859375 -5.75 7.578125 -4.488281 6.042969 -4.488281 Z M 1.929688 -8.007812 L 1.929688 -4.679688 L 6.042969 -4.679688 C 7.472656 -4.679688 8.683594 -5.859375 8.683594 -7.289062 L 8.683594 -8.007812 C 8.683594 -9.460938 7.472656 -10.65625 6.042969 -10.65625 L 4.554688 -10.65625 C 3.035156 -10.65625 1.929688 -9.425781 1.929688 -8.007812 Z M 7.164062 -8.023438 L 7.164062 -7.289062 C 7.164062 -6.675781 6.667969 -6.152344 6.042969 -6.152344 L 3.433594 -6.152344 C 3.433594 -6.785156 3.417969 -7.394531 3.417969 -8.023438 C 3.417969 -8.640625 3.929688 -9.160156 4.554688 -9.160156 L 6.042969 -9.160156 C 6.667969 -9.160156 7.164062 -8.640625 7.164062 -8.023438 Z M 7.144531 -0.0078125 L 8.667969 -0.0078125 C 8.667969 -2.492188 6.570312 -4.488281 4.09375 -4.488281 L 1.929688 -4.488281 L 1.929688 -0.0078125 L 3.433594 -0.0078125 L 3.433594 -3 L 4.113281 -3 C 5.792969 -3 7.144531 -1.671875 7.144531 -0.0078125 Z M 7.144531 -0.0078125 "/></g></g></g><g fill="#ffd501" fill-opacity="1"><g transform="translate(127.640569, 142.958192)"><g><path d="M 0.335938 -7.980469 L 0.335938 -4.238281 C 0.335938 -1.929688 2.257812 0.0078125 4.578125 0.0078125 L 8.902344 0.0078125 L 8.902344 -1.453125 L 4.578125 -1.453125 C 3.082031 -1.453125 1.8125 -2.699219 1.8125 -4.21875 L 1.8125 -8.03125 C 1.8125 -9.550781 3.082031 -10.796875 4.578125 -10.796875 L 8.902344 -10.796875 L 8.902344 -12.242188 L 4.578125 -12.242188 C 2.257812 -12.242188 0.335938 -10.320312 0.335938 -7.980469 Z M 3.460938 -8.03125 L 3.460938 -7.695312 L 8.902344 -7.695312 L 8.902344 -6.21875 L 1.988281 -6.21875 L 1.988281 -8.03125 C 1.988281 -9.445312 3.183594 -10.621094 4.578125 -10.621094 L 8.902344 -10.621094 L 8.902344 -9.152344 L 4.578125 -9.152344 C 3.96875 -9.152344 3.460938 -8.640625 3.460938 -8.03125 Z M 1.988281 -6.042969 L 8.902344 -6.042969 L 8.902344 -4.554688 L 3.460938 -4.554688 L 3.460938 -4.21875 C 3.460938 -3.609375 3.96875 -3.101562 4.578125 -3.101562 L 8.902344 -3.101562 L 8.902344 -1.628906 L 4.578125 -1.628906 C 3.183594 -1.628906 1.988281 -2.808594 1.988281 -4.21875 Z M 1.988281 -6.042969 "/></g></g></g><g clip-path="url(#ce37a7e375)"><path fill="#ffd501" d="M 145.355469 147.53125 L 148.082031 144.804688 C 148.1875 144.699219 148.328125 144.644531 148.46875 144.644531 C 148.609375 144.644531 148.75 144.699219 148.855469 144.804688 L 152.753906 148.703125 L 155.09375 146.363281 C 155.222656 146.230469 155.417969 146.175781 155.597656 146.214844 C 155.78125 146.253906 155.933594 146.386719 155.996094 146.558594 L 160.867188 159.609375 C 160.941406 159.808594 160.890625 160.039062 160.738281 160.1875 C 160.589844 160.339844 160.359375 160.390625 160.160156 160.316406 L 147.109375 155.445312 C 146.933594 155.382812 146.804688 155.230469 146.765625 155.046875 C 146.726562 154.863281 146.785156 154.671875 146.914062 154.542969 L 149.253906 152.203125 L 145.359375 148.308594 C 145.140625 148.097656 145.140625 147.75 145.355469 147.53125 Z M 160.0625 162.820312 C 159.761719 162.820312 159.511719 163.066406 159.511719 163.371094 L 159.511719 167.226562 C 159.511719 167.527344 159.761719 167.777344 160.0625 167.777344 C 160.367188 167.777344 160.613281 167.527344 160.613281 167.226562 L 160.613281 163.371094 C 160.613281 163.066406 160.367188 162.820312 160.0625 162.820312 Z M 163.367188 159.515625 C 163.367188 159.816406 163.617188 160.066406 163.917969 160.066406 L 167.773438 160.066406 C 168.078125 160.066406 168.324219 159.816406 168.324219 159.515625 C 168.324219 159.210938 168.078125 158.964844 167.773438 158.964844 L 163.917969 158.964844 C 163.617188 158.964844 163.367188 159.210938 163.367188 159.515625 Z M 157.335938 161.691406 C 157.195312 161.691406 157.054688 161.746094 156.949219 161.851562 L 154.222656 164.578125 C 154.007812 164.792969 154.007812 165.144531 154.222656 165.359375 C 154.4375 165.574219 154.785156 165.574219 155 165.359375 L 157.726562 162.632812 C 157.941406 162.417969 157.941406 162.066406 157.726562 161.851562 C 157.617188 161.742188 157.476562 161.691406 157.335938 161.691406 Z M 163.175781 157.175781 L 165.902344 154.449219 C 166.117188 154.234375 166.117188 153.886719 165.902344 153.671875 C 165.796875 153.5625 165.65625 153.507812 165.515625 153.507812 C 165.375 153.507812 165.234375 153.5625 165.128906 153.671875 L 162.402344 156.398438 C 162.1875 156.613281 162.1875 156.960938 162.402344 157.175781 C 162.617188 157.394531 162.960938 157.394531 163.175781 157.175781 Z M 165.125 165.355469 C 165.339844 165.570312 165.6875 165.570312 165.902344 165.355469 C 166.117188 165.140625 166.117188 164.792969 165.902344 164.578125 L 163.175781 161.851562 C 163.070312 161.742188 162.929688 161.6875 162.789062 161.6875 C 162.648438 161.6875 162.507812 161.742188 162.402344 161.851562 C 162.1875 162.066406 162.1875 162.414062 162.402344 162.628906 Z M 165.125 165.355469 " fill-opacity="1" fill-rule="nonzero"/></g></svg>